<?xml version="1.0" encoding="utf-8"?>
<!-- Generator: Adobe Illustrator 27.3.1, SVG Export Plug-In . SVG Version: 6.00 Build 0)  -->
<svg version="1.1" id="Capa_1" xmlns="http://www.w3.org/2000/svg" xmlns:xlink="http://www.w3.org/1999/xlink" x="0px" y="0px"
	 viewBox="0 0 961 211" style="enable-background:new 0 0 961 211;" xml:space="preserve">
<style type="text/css">
	.st0{fill:#1D1D1B;}
	.st1{fill:#6EE00E;}
	.st2{fill:#289E5A;}
	.st3{fill:url(#SVGID_1_);}
	.st4{fill:#3F6AC9;}
	.st5{fill:none;}
</style>
<g>
	<g>
		<path class="st0" d="M83.86,162.32h17.72v4.44H83.86V162.32z M98.65,151.32h3.47v4.77h-2.93c-0.94-0.04-1.79,0.08-2.55,0.35
			c-0.76,0.27-1.35,0.75-1.76,1.44c-0.42,0.69-0.62,1.68-0.62,2.98v28.34h-5.15v-28.61c0-2.17,0.39-3.94,1.16-5.31
			c0.78-1.37,1.89-2.38,3.33-3.01C95.06,151.63,96.74,151.32,98.65,151.32z"/>
		<path class="st0" d="M111.87,162.15h5.2v27.04h-5.2V162.15z M126.23,166.76c-1.88,0-3.48,0.43-4.8,1.3
			c-1.32,0.87-2.37,1.93-3.14,3.2c-0.78,1.26-1.29,2.47-1.54,3.63l-0.05-3.09c0.04-0.36,0.14-0.93,0.3-1.71
			c0.16-0.78,0.46-1.65,0.89-2.63s1.01-1.91,1.73-2.79c0.72-0.88,1.63-1.62,2.71-2.2c1.08-0.58,2.38-0.87,3.9-0.87V166.76z"/>
		<path class="st0" d="M149.69,189.79c-2.64,0-5.06-0.56-7.26-1.68c-2.2-1.12-3.96-2.73-5.26-4.82c-1.3-2.09-1.95-4.61-1.95-7.53
			c0-2.96,0.65-5.5,1.95-7.61s3.05-3.73,5.26-4.85c2.2-1.12,4.62-1.68,7.26-1.68c2.64,0,5.04,0.56,7.21,1.68
			c2.17,1.12,3.9,2.74,5.2,4.85s1.95,4.65,1.95,7.61c0,2.93-0.65,5.44-1.95,7.53c-1.3,2.1-3.03,3.7-5.2,4.82
			S152.33,189.79,149.69,189.79z M149.69,185.29c1.63,0,3.13-0.37,4.52-1.11c1.39-0.74,2.51-1.82,3.36-3.25
			c0.85-1.43,1.27-3.15,1.27-5.17c0-2.06-0.43-3.81-1.27-5.26c-0.85-1.44-1.97-2.55-3.36-3.3c-1.39-0.76-2.9-1.14-4.52-1.14
			c-1.63,0-3.14,0.37-4.55,1.11c-1.41,0.74-2.55,1.83-3.41,3.28c-0.87,1.45-1.3,3.22-1.3,5.31c0,2.02,0.42,3.75,1.27,5.17
			c0.85,1.43,1.98,2.51,3.39,3.25S148.03,185.29,149.69,185.29z"/>
		<path class="st0" d="M175.16,162.15h5.2v27.04h-5.2V162.15z M190.66,161.61c1.52,0,2.89,0.22,4.12,0.65
			c1.23,0.43,2.28,1.08,3.14,1.92c0.87,0.85,1.54,1.9,2.03,3.14c0.49,1.25,0.73,2.67,0.73,4.25v17.61h-5.15v-16.47
			c0-2.13-0.52-3.73-1.54-4.79s-2.59-1.6-4.69-1.6c-1.63,0-3.11,0.38-4.44,1.14c-1.34,0.76-2.43,1.76-3.28,3.01
			c-0.85,1.25-1.36,2.65-1.54,4.2l-0.05-2.98c0.18-1.44,0.57-2.78,1.17-4.01c0.6-1.23,1.35-2.3,2.28-3.22
			c0.92-0.92,2-1.63,3.22-2.11C187.88,161.86,189.21,161.61,190.66,161.61z M210.49,161.61c1.52,0,2.89,0.22,4.12,0.65
			c1.23,0.43,2.28,1.08,3.14,1.92c0.87,0.85,1.54,1.9,2.03,3.14c0.49,1.25,0.73,2.67,0.73,4.25v17.61h-5.15v-16.47
			c0-2.13-0.51-3.73-1.54-4.79c-1.03-1.07-2.59-1.6-4.69-1.6c-1.63,0-3.11,0.38-4.44,1.14c-1.34,0.76-2.43,1.76-3.28,3.01
			c-0.85,1.25-1.36,2.65-1.54,4.2l-0.05-3.03c0.18-1.45,0.57-2.77,1.16-3.98c0.6-1.21,1.36-2.28,2.3-3.2
			c0.94-0.92,2.02-1.63,3.25-2.11C207.76,161.86,209.08,161.61,210.49,161.61z"/>
		<path class="st0" d="M256.87,150.99v5.58h-6.45v-5.58H256.87z M251.13,162.15h5.15v37.88h-5.15V162.15z"/>
		<path class="st0" d="M289.87,176.46l0.05,1.62c-0.04,0.47-0.15,1.17-0.35,2.09c-0.2,0.92-0.52,1.92-0.98,3.01
			c-0.45,1.08-1.07,2.13-1.84,3.14c-0.78,1.01-1.76,1.84-2.95,2.49c-1.19,0.65-2.64,0.97-4.33,0.97c-1.16,0-2.34-0.16-3.55-0.49
			c-1.21-0.33-2.32-0.87-3.33-1.63c-1.01-0.76-1.82-1.8-2.44-3.12c-0.61-1.32-0.92-2.97-0.92-4.96v-17.45h5.2v16.36
			c0,1.66,0.26,2.96,0.79,3.9c0.52,0.94,1.27,1.61,2.25,2c0.98,0.4,2.08,0.6,3.31,0.6c1.88,0,3.46-0.46,4.74-1.38
			c1.28-0.92,2.28-2.04,3.01-3.36C289.24,178.96,289.69,177.69,289.87,176.46z M294.75,189.19h-5.15v-27.04h5.15V189.19z"/>
		<path class="st0" d="M307.26,162.15h5.2v27.04h-5.2V162.15z M322.76,161.61c1.52,0,2.89,0.22,4.12,0.65
			c1.23,0.43,2.28,1.08,3.14,1.92c0.87,0.85,1.54,1.9,2.03,3.14c0.49,1.25,0.73,2.67,0.73,4.25v17.61h-5.15v-16.47
			c0-2.13-0.52-3.73-1.54-4.79s-2.59-1.6-4.69-1.6c-1.63,0-3.11,0.38-4.44,1.14c-1.34,0.76-2.43,1.76-3.28,3.01
			c-0.85,1.25-1.36,2.65-1.54,4.2l-0.05-2.98c0.18-1.44,0.57-2.78,1.17-4.01c0.6-1.23,1.35-2.3,2.28-3.22
			c0.92-0.92,2-1.63,3.22-2.11C319.98,161.86,321.31,161.61,322.76,161.61z"/>
		<path class="st0" d="M351.53,150.99v5.58h-6.45v-5.58H351.53z M345.73,162.15h5.15v27.04h-5.15V162.15z"/>
		<path class="st0" d="M376.94,189.79c-2.64,0-5.06-0.56-7.26-1.68c-2.2-1.12-3.96-2.73-5.26-4.82c-1.3-2.09-1.95-4.61-1.95-7.53
			c0-2.96,0.65-5.5,1.95-7.61s3.05-3.73,5.26-4.85c2.2-1.12,4.62-1.68,7.26-1.68c2.64,0,5.04,0.56,7.21,1.68
			c2.17,1.12,3.9,2.74,5.2,4.85s1.95,4.65,1.95,7.61c0,2.93-0.65,5.44-1.95,7.53c-1.3,2.1-3.03,3.7-5.2,4.82
			S379.58,189.79,376.94,189.79z M376.94,185.29c1.63,0,3.13-0.37,4.52-1.11c1.39-0.74,2.51-1.82,3.36-3.25
			c0.85-1.43,1.27-3.15,1.27-5.17c0-2.06-0.43-3.81-1.27-5.26c-0.85-1.44-1.97-2.55-3.36-3.3c-1.39-0.76-2.9-1.14-4.52-1.14
			c-1.63,0-3.14,0.37-4.55,1.11c-1.41,0.74-2.55,1.83-3.41,3.28c-0.87,1.45-1.3,3.22-1.3,5.31c0,2.02,0.42,3.75,1.27,5.17
			c0.85,1.43,1.98,2.51,3.39,3.25S375.28,185.29,376.94,185.29z"/>
		<path class="st0" d="M402.41,162.15h5.2v27.04h-5.2V162.15z M416.77,166.76c-1.88,0-3.48,0.43-4.8,1.3
			c-1.32,0.87-2.37,1.93-3.14,3.2c-0.78,1.26-1.29,2.47-1.54,3.63l-0.05-3.09c0.04-0.36,0.14-0.93,0.3-1.71
			c0.16-0.78,0.46-1.65,0.89-2.63s1.01-1.91,1.73-2.79c0.72-0.88,1.63-1.62,2.71-2.2c1.08-0.58,2.38-0.87,3.9-0.87V166.76z"/>
		<path class="st0" d="M425.98,180.41h4.77c0.18,1.45,0.83,2.63,1.95,3.55c1.12,0.92,2.69,1.38,4.71,1.38c1.3,0,2.31-0.15,3.04-0.46
			c0.72-0.31,1.24-0.73,1.54-1.27c0.31-0.54,0.46-1.14,0.46-1.79c0-0.83-0.22-1.47-0.65-1.92c-0.43-0.45-1.05-0.83-1.84-1.14
			c-0.79-0.31-1.73-0.6-2.82-0.89c-1.19-0.32-2.38-0.7-3.58-1.14s-2.29-0.96-3.28-1.57c-0.99-0.61-1.79-1.38-2.38-2.3
			s-0.89-2.05-0.89-3.39c0-1.12,0.24-2.17,0.73-3.14c0.49-0.98,1.19-1.82,2.11-2.52c0.92-0.71,2-1.25,3.22-1.63
			c1.23-0.38,2.58-0.57,4.06-0.57c2.06,0,3.79,0.37,5.2,1.11c1.41,0.74,2.48,1.78,3.22,3.12c0.74,1.34,1.13,2.87,1.17,4.61h-4.55
			c-0.25-1.52-0.78-2.63-1.57-3.33c-0.79-0.7-1.99-1.06-3.58-1.06c-1.55,0-2.75,0.31-3.58,0.92c-0.83,0.61-1.25,1.45-1.25,2.49
			c0,0.79,0.29,1.44,0.87,1.92c0.58,0.49,1.35,0.91,2.33,1.27c0.98,0.36,2.08,0.74,3.31,1.14c1.16,0.4,2.27,0.8,3.33,1.22
			c1.06,0.42,2.02,0.9,2.87,1.46c0.85,0.56,1.52,1.28,2,2.17c0.49,0.89,0.73,1.98,0.73,3.28c0,1.59-0.4,2.97-1.19,4.15
			c-0.79,1.17-1.94,2.09-3.44,2.74c-1.5,0.65-3.31,0.97-5.45,0.97c-1.95,0-3.6-0.24-4.96-0.7s-2.49-1.08-3.41-1.84
			c-0.92-0.76-1.62-1.56-2.11-2.41c-0.49-0.85-0.81-1.67-0.98-2.46C425.95,181.57,425.91,180.92,425.98,180.41z"/>
		<path class="st0" d="M474.53,162.15h17.5v4.5h-17.5V162.15z M480.71,155h5.15v34.19h-5.15V155z"/>
		<path class="st0" d="M515.71,189.79c-2.64,0-5.06-0.56-7.26-1.68c-2.2-1.12-3.96-2.73-5.26-4.82c-1.3-2.09-1.95-4.61-1.95-7.53
			c0-2.96,0.65-5.5,1.95-7.61c1.3-2.11,3.05-3.73,5.26-4.85c2.2-1.12,4.62-1.68,7.26-1.68c2.64,0,5.04,0.56,7.21,1.68
			c2.17,1.12,3.9,2.74,5.2,4.85s1.95,4.65,1.95,7.61c0,2.93-0.65,5.44-1.95,7.53c-1.3,2.1-3.03,3.7-5.2,4.82
			C520.75,189.23,518.35,189.79,515.71,189.79z M515.71,185.29c1.62,0,3.13-0.37,4.52-1.11c1.39-0.74,2.51-1.82,3.36-3.25
			c0.85-1.43,1.27-3.15,1.27-5.17c0-2.06-0.42-3.81-1.27-5.26c-0.85-1.44-1.97-2.55-3.36-3.3c-1.39-0.76-2.9-1.14-4.52-1.14
			c-1.63,0-3.14,0.37-4.55,1.11c-1.41,0.74-2.55,1.83-3.41,3.28c-0.87,1.45-1.3,3.22-1.3,5.31c0,2.02,0.42,3.75,1.27,5.17
			c0.85,1.43,1.98,2.51,3.39,3.25C512.51,184.92,514.05,185.29,515.71,185.29z"/>
		<path class="st0" d="M565.02,150.99v5.58h-6.45v-5.58H565.02z M559.27,162.15h5.15v37.88h-5.15V162.15z"/>
		<path class="st0" d="M598.02,176.46l0.05,1.62c-0.04,0.47-0.15,1.17-0.35,2.09c-0.2,0.92-0.52,1.92-0.98,3.01
			c-0.45,1.08-1.07,2.13-1.84,3.14c-0.78,1.01-1.76,1.84-2.95,2.49c-1.19,0.65-2.64,0.97-4.33,0.97c-1.16,0-2.34-0.16-3.55-0.49
			c-1.21-0.33-2.32-0.87-3.33-1.63c-1.01-0.76-1.83-1.8-2.44-3.12c-0.62-1.32-0.92-2.97-0.92-4.96v-17.45h5.2v16.36
			c0,1.66,0.26,2.96,0.79,3.9c0.52,0.94,1.27,1.61,2.25,2c0.98,0.4,2.08,0.6,3.31,0.6c1.88,0,3.46-0.46,4.74-1.38
			c1.28-0.92,2.28-2.04,3.01-3.36C597.38,178.96,597.83,177.69,598.02,176.46z M602.89,189.19h-5.15v-27.04h5.15V189.19z"/>
		<path class="st0" d="M615.41,162.15h5.2v27.04h-5.2V162.15z M630.91,161.61c1.52,0,2.89,0.22,4.12,0.65
			c1.23,0.43,2.28,1.08,3.14,1.92c0.87,0.85,1.54,1.9,2.03,3.14c0.49,1.25,0.73,2.67,0.73,4.25v17.61h-5.15v-16.47
			c0-2.13-0.51-3.73-1.54-4.79s-2.59-1.6-4.69-1.6c-1.62,0-3.11,0.38-4.44,1.14c-1.34,0.76-2.43,1.76-3.28,3.01
			c-0.85,1.25-1.36,2.65-1.54,4.2l-0.05-2.98c0.18-1.44,0.57-2.78,1.17-4.01c0.6-1.23,1.35-2.3,2.28-3.22
			c0.92-0.92,2-1.63,3.22-2.11C628.12,161.86,629.46,161.61,630.91,161.61z"/>
		<path class="st0" d="M659.68,150.99v5.58h-6.45v-5.58H659.68z M653.88,162.15h5.15v27.04h-5.15V162.15z"/>
		<path class="st0" d="M685.09,189.79c-2.64,0-5.06-0.56-7.26-1.68c-2.2-1.12-3.96-2.73-5.26-4.82c-1.3-2.09-1.95-4.61-1.95-7.53
			c0-2.96,0.65-5.5,1.95-7.61c1.3-2.11,3.05-3.73,5.26-4.85c2.2-1.12,4.62-1.68,7.26-1.68c2.64,0,5.04,0.56,7.21,1.68
			c2.17,1.12,3.9,2.74,5.2,4.85s1.95,4.65,1.95,7.61c0,2.93-0.65,5.44-1.95,7.53c-1.3,2.1-3.03,3.7-5.2,4.82
			C690.13,189.23,687.73,189.79,685.09,189.79z M685.09,185.29c1.62,0,3.13-0.37,4.52-1.11c1.39-0.74,2.51-1.82,3.36-3.25
			c0.85-1.43,1.27-3.15,1.27-5.17c0-2.06-0.42-3.81-1.27-5.26c-0.85-1.44-1.97-2.55-3.36-3.3c-1.39-0.76-2.9-1.14-4.52-1.14
			c-1.63,0-3.14,0.37-4.55,1.11c-1.41,0.74-2.55,1.83-3.41,3.28c-0.87,1.45-1.3,3.22-1.3,5.31c0,2.02,0.42,3.75,1.27,5.17
			c0.85,1.43,1.98,2.51,3.39,3.25C681.89,184.92,683.43,185.29,685.09,185.29z"/>
		<path class="st0" d="M710.56,162.15h5.2v27.04h-5.2V162.15z M724.92,166.76c-1.88,0-3.48,0.43-4.79,1.3
			c-1.32,0.87-2.37,1.93-3.14,3.2c-0.78,1.26-1.29,2.47-1.54,3.63l-0.05-3.09c0.04-0.36,0.14-0.93,0.3-1.71
			c0.16-0.78,0.46-1.65,0.89-2.63c0.43-0.98,1.01-1.91,1.73-2.79s1.63-1.62,2.71-2.2c1.08-0.58,2.38-0.87,3.9-0.87V166.76z"/>
		<path class="st0" d="M734.13,180.41h4.77c0.18,1.45,0.83,2.63,1.95,3.55c1.12,0.92,2.69,1.38,4.71,1.38c1.3,0,2.31-0.15,3.04-0.46
			c0.72-0.31,1.24-0.73,1.54-1.27c0.31-0.54,0.46-1.14,0.46-1.79c0-0.83-0.22-1.47-0.65-1.92c-0.43-0.45-1.05-0.83-1.84-1.14
			c-0.79-0.31-1.73-0.6-2.82-0.89c-1.19-0.32-2.38-0.7-3.58-1.14s-2.29-0.96-3.28-1.57c-0.99-0.61-1.79-1.38-2.38-2.3
			c-0.6-0.92-0.89-2.05-0.89-3.39c0-1.12,0.24-2.17,0.73-3.14c0.49-0.98,1.19-1.82,2.11-2.52c0.92-0.71,2-1.25,3.22-1.63
			c1.23-0.38,2.58-0.57,4.06-0.57c2.06,0,3.79,0.37,5.2,1.11c1.41,0.74,2.48,1.78,3.22,3.12c0.74,1.34,1.13,2.87,1.17,4.61h-4.55
			c-0.25-1.52-0.78-2.63-1.57-3.33c-0.79-0.7-1.99-1.06-3.58-1.06c-1.55,0-2.75,0.31-3.58,0.92c-0.83,0.61-1.25,1.45-1.25,2.49
			c0,0.79,0.29,1.44,0.87,1.92c0.58,0.49,1.35,0.91,2.33,1.27c0.98,0.36,2.08,0.74,3.31,1.14c1.16,0.4,2.27,0.8,3.33,1.22
			c1.06,0.42,2.02,0.9,2.87,1.46c0.85,0.56,1.52,1.28,2,2.17c0.49,0.89,0.73,1.98,0.73,3.28c0,1.59-0.4,2.97-1.19,4.15
			c-0.79,1.17-1.94,2.09-3.44,2.74c-1.5,0.65-3.31,0.97-5.45,0.97c-1.95,0-3.6-0.24-4.96-0.7s-2.49-1.08-3.41-1.84
			c-0.92-0.76-1.62-1.56-2.11-2.41c-0.49-0.85-0.81-1.67-0.97-2.46C734.1,181.57,734.05,180.92,734.13,180.41z"/>
	</g>
</g>
<g>
	<circle class="st1" cx="775.02" cy="110.13" r="13.21"/>
	<path class="st2" d="M758.96,105.11l-6.54,21.14h-22.6l31.41-94.73h27.48l31.53,94.73h-24.03l-6.54-21.14l-7.93-26.22l-7.18-24.24
		l-10.11,32.76L758.96,105.11z"/>
	<path class="st2" d="M586.94,126.25H526.5V31.52h59.36v19.82h-37.24v55.09h38.31V126.25z"/>
	<circle class="st1" cx="566.02" cy="78.88" r="13.21"/>
	<circle class="st1" cx="385.17" cy="110.13" r="13.21"/>
	<path class="st2" d="M97.63,52.66H72.41v73.59H50.4V52.66H25.18V31.52h72.45V52.66z"/>
	<path class="st2" d="M172.46,126.25h-60.43V31.52h59.36v19.82h-37.24v55.09h38.31V126.25z"/>
	<path class="st2" d="M181.86,78.95c0-7.4,1.13-14.11,3.39-20.15c2.26-6.03,5.37-11.18,9.34-15.46c3.97-4.27,8.6-7.57,13.92-9.91
		c5.31-2.33,11.02-3.5,17.13-3.5c3.73,0,7.41,0.51,11.06,1.52c3.65,1.01,7.08,2.51,10.29,4.49c3.21,1.98,6.09,4.45,8.63,7.4
		c2.54,2.95,4.52,6.41,5.95,10.37l-19.03,9.64c-0.71-1.59-1.63-3.15-2.74-4.69c-1.11-1.54-2.4-2.91-3.87-4.1
		c-1.47-1.19-3.08-2.16-4.82-2.91c-1.75-0.75-3.61-1.12-5.59-1.12c-2.62,0-5.12,0.62-7.5,1.85c-2.38,1.23-4.48,3.04-6.31,5.42
		c-1.83,2.38-3.27,5.35-4.34,8.92c-1.07,3.57-1.61,7.64-1.61,12.22c0,4.67,0.53,8.76,1.61,12.29c1.07,3.52,2.52,6.47,4.34,8.85
		c1.82,2.38,3.93,4.16,6.31,5.35c2.38,1.19,4.88,1.78,7.5,1.78c1.98,0,3.85-0.37,5.59-1.12c1.74-0.75,3.35-1.72,4.82-2.91
		c1.47-1.19,2.76-2.58,3.87-4.16c1.11-1.59,2.02-3.17,2.74-4.76l19.03,9.64c-1.75,4.05-3.91,7.58-6.48,10.57
		c-2.58,3-5.43,5.48-8.57,7.47s-6.46,3.46-9.99,4.43c-3.53,0.97-7.16,1.45-10.88,1.45c-6.27,0-12.06-1.15-17.37-3.43
		c-5.31-2.29-9.93-5.55-13.86-9.78c-3.93-4.23-7-9.36-9.22-15.39C182.97,93.2,181.86,86.44,181.86,78.95z"/>
	<path class="st2" d="M331.16,126.25h-56.03V31.52h22.01v73.59h34.03V126.25z"/>
	<path class="st2" d="M369.11,105.11l-6.54,21.14h-22.6l31.41-94.73h27.48l31.53,94.73h-24.03l-6.54-21.14l-7.93-26.22l-7.18-24.24
		l-10.11,32.76L369.11,105.11z"/>
	<path class="st2" d="M511.51,61.51c0,7.58-1.57,13.87-4.7,18.89c-3.14,5.02-7.6,8.68-13.38,10.97c-2.14,0.88-4.54,1.56-7.2,2.05
		c-2.66,0.48-5.73,0.73-9.22,0.73H464.4v32.1h-22.01V31.52h34.02c4.68,0,8.7,0.4,12.08,1.19c3.37,0.79,6.4,1.94,9.1,3.44
		c4.36,2.47,7.77,5.81,10.23,10.04C510.28,50.41,511.51,55.52,511.51,61.51z M476.18,75.52c2.06,0,3.73-0.24,5-0.73
		c1.27-0.48,2.38-1.12,3.33-1.92c1.35-1.23,2.34-2.75,2.97-4.56c0.63-1.8,0.95-3.68,0.95-5.62c0-3.61-1.03-6.65-3.09-9.12
		c-0.87-1.06-2-1.89-3.39-2.51c-1.39-0.62-3.19-0.93-5.41-0.93H464.4v25.37H476.18z"/>
	<path class="st2" d="M680.56,78.82c0,8.1-1.67,15.79-5,23.05c-3.33,7.27-8.29,13.1-14.87,17.51c-3.25,2.11-6.88,3.79-10.88,5.02
		c-4.01,1.23-8.47,1.85-13.38,1.85h-33.55V31.52h32.48c5.47,0,10.35,0.62,14.63,1.85c4.28,1.23,8.09,2.86,11.42,4.89
		c3.41,2.2,6.33,4.85,8.75,7.93c2.42,3.08,4.4,6.41,5.95,9.97c1.55,3.57,2.68,7.29,3.39,11.16C680.2,71.2,680.56,75.03,680.56,78.82
		z M657.12,78.82c0-5.9-0.73-10.77-2.2-14.6s-3.35-6.8-5.65-8.92c-1.98-1.85-4.17-3.17-6.54-3.96c-2.38-0.79-4.84-1.19-7.38-1.19
		h-10.47v57.47h10.59c2.54,0,5-0.44,7.38-1.32c2.38-0.88,4.56-2.29,6.55-4.23c2.3-2.29,4.16-5.35,5.59-9.18
		C656.41,89.06,657.12,84.37,657.12,78.82z"/>
	<path class="st2" d="M695.79,126.25V31.52h22.01v94.73H695.79z"/>
	<circle class="st1" cx="151.55" cy="78.88" r="13.21"/>
</g>
<linearGradient id="SVGID_1_" gradientUnits="userSpaceOnUse" x1="99.092" y1="-430.7152" x2="954" y2="-430.7152">
	<stop  offset="0" style="stop-color:#335FA9"/>
	<stop  offset="0.3492" style="stop-color:#008CB7"/>
	<stop  offset="0.6106" style="stop-color:#33B5B3"/>
	<stop  offset="1" style="stop-color:#93C14C"/>
</linearGradient>
<path class="st3" d="M99.09-472.46h69.47v5.12h-31.9v78.45h-5.67v-78.45h-31.9V-472.46z M192.15-428.06h52.96v-5.12h-52.96V-428.06z
	 M192.15-467.34h52.96v-5.12h-52.96V-467.34z M192.15-388.9h52.96v-5.12h-52.96V-388.9z M643.68-388.9h52.96v-5.12h-52.96V-388.9z
	 M643.68-428.06h52.96v-5.12h-52.96V-428.06z M643.68-467.34h52.96v-5.12h-52.96V-467.34z M287.89-456.61
	c3.38-3.28,7.43-5.92,12.05-7.84c9.23-3.84,20.14-3.82,29.3-0.06c4.58,1.88,8.63,4.56,12.04,7.95l0.69,0.68l3.7-3.59l-0.71-0.71
	c-3.92-3.88-8.55-6.93-13.76-9.07c-5.22-2.14-10.79-3.22-16.57-3.22c-7.74,0-14.99,1.89-21.54,5.61
	c-6.56,3.72-11.83,8.84-15.66,15.21c-3.84,6.38-5.78,13.43-5.78,20.97c0,7.53,1.95,14.59,5.78,20.97
	c3.83,6.37,9.1,11.49,15.66,15.21c6.55,3.72,13.8,5.61,21.54,5.61c5.78,0,11.36-1.08,16.57-3.22c5.21-2.14,9.84-5.15,13.75-8.95
	l0.71-0.69l-3.67-3.75l-0.71,0.7c-3.41,3.39-7.46,6.06-12.04,7.95c-4.58,1.88-9.5,2.84-14.62,2.84c-6.84,0-13.24-1.64-19.02-4.89
	c-5.78-3.24-10.4-7.73-13.73-13.34c-3.33-5.61-5.02-11.81-5.02-18.44c0-4.96,1-9.75,2.98-14.23
	C281.81-449.4,284.52-453.33,287.89-456.61z M381.09-472.46h-5.67v83.57h54.49v-5.12h-48.82V-472.46z M479.89-472.46l-38.42,83.57
	h6.44l34.68-75.67l34.82,75.67h6.29l-38.27-83.57H479.89z M915.99-471.89l-0.26-0.58h-5.53l-38.43,83.57h6.44l34.68-75.67
	l34.82,75.67H954L915.99-471.89z M841.39-388.9h5.67v-83.57h-5.67V-388.9z M785.37-466.88c-7.45-3.7-15.68-5.58-24.47-5.58h-27.09
	v5.12h27.09c7.84,0,15.18,1.67,21.81,4.97c6.61,3.29,11.9,7.79,15.71,13.37c3.79,5.56,5.72,11.73,5.72,18.33
	c0,6.61-1.92,12.79-5.72,18.39c-3.81,5.62-9.09,10.12-15.7,13.37c-6.63,3.26-13.97,4.91-21.81,4.91h-22.55v-34.69h-4.6v38.82
	l0.07,0.99h27.09c8.79,0,17.02-1.88,24.47-5.58c7.46-3.71,13.46-8.82,17.83-15.19c4.38-6.39,6.61-13.46,6.61-21.02
	c0-7.55-2.22-14.62-6.61-21.01C798.83-458.06,792.84-463.17,785.37-466.88z M585-472.53h-33.38v5.26H585
	c11.92,0,21.61,9.69,21.61,21.61v2.84c0,11.92-9.69,21.61-21.61,21.61h-36.01v32.32h5.26v-27.05H585
	c14.82,0,26.87-12.05,26.87-26.87v-2.84C611.88-460.48,599.82-472.53,585-472.53z"/>
<g>
	<path d="M332.03-340.63v-13.36h-2.23v-3.1h2.23v-0.7c0-2.13,0.57-4.28,2-5.63c1.22-1.16,2.86-1.59,4.31-1.59
		c1.1,0,1.99,0.18,2.64,0.41l-0.29,3.2c-0.45-0.16-1-0.3-1.77-0.3c-2.06,0-2.75,1.73-2.75,3.75v0.86h3.6v3.1h-3.57v13.36H332.03z"/>
	<path d="M345.91-351.79c0-2.2-0.05-3.83-0.13-5.29h3.6l0.15,3.13h0.12c0.81-2.32,2.73-3.5,4.5-3.5c0.41,0,0.64,0.02,0.98,0.09v3.92
		c-0.36-0.08-0.72-0.12-1.22-0.12c-1.98,0-3.36,1.26-3.73,3.15c-0.07,0.37-0.11,0.81-0.11,1.26v8.54h-4.16V-351.79z"/>
	<path d="M376.83-349.02c0,6.05-4.25,8.76-8.46,8.76c-4.64,0-8.24-3.2-8.24-8.48c0-5.4,3.56-8.72,8.52-8.72
		C373.55-357.46,376.83-354.01,376.83-349.02z M364.42-348.84c0,3.17,1.58,5.56,4.09,5.56c2.39,0,4.04-2.3,4.04-5.61
		c0-2.59-1.14-5.54-4.02-5.54C365.61-354.43,364.42-351.58,364.42-348.84z"/>
	<path d="M383.81-352.19c0-1.9-0.06-3.47-0.14-4.9h3.56l0.19,2.42h0.1c0.79-1.28,2.29-2.79,5.07-2.79c2.18,0,3.86,1.21,4.57,3.03
		h0.07c0.58-0.9,1.27-1.59,2.01-2.07c0.94-0.63,1.97-0.97,3.35-0.97c2.72,0,5.49,1.86,5.49,7.14v9.69h-4.06v-9.1
		c0-2.74-0.95-4.35-2.94-4.35c-1.42,0-2.47,1-2.89,2.19c-0.13,0.4-0.21,0.92-0.21,1.39v9.88h-4.06v-9.52c0-2.32-0.93-3.94-2.84-3.94
		c-1.56,0-2.6,1.22-3,2.35c-0.15,0.42-0.21,0.91-0.21,1.38v9.73h-4.06V-352.19z"/>
	<path d="M422.91-336.82c1.35-0.1,2.46-0.45,3.13-1.17c0.78-0.84,1.08-2.15,1.08-5.73v-13.37h4.17v14.57c0,3.42-0.66,5.55-2.16,7.01
		c-1.43,1.36-3.73,1.93-5.8,1.94L422.91-336.82z M431.52-361.69c0.01,1.23-0.89,2.24-2.37,2.24c-1.39,0-2.29-1.01-2.28-2.24
		c-0.01-1.27,0.93-2.25,2.34-2.25C430.62-363.94,431.5-362.96,431.52-361.69z"/>
	<path d="M453.99-345.56c0,1.96,0.06,3.59,0.13,4.93h-3.64l-0.2-2.49h-0.1c-0.69,1.15-2.32,2.86-5.27,2.86c-3,0-5.73-1.8-5.73-7.18
		v-9.65h4.17v8.96c0,2.73,0.86,4.48,3.07,4.48c1.67,0,2.75-1.16,3.18-2.22c0.14-0.36,0.22-0.81,0.22-1.29v-9.93h4.17V-345.56z"/>
	<path d="M462.05-352.19c0-1.9-0.06-3.47-0.14-4.9h3.64l0.21,2.47h0.1c0.73-1.28,2.51-2.84,5.24-2.84c2.87,0,5.85,1.85,5.85,7.05
		v9.78h-4.17v-9.29c0-2.36-0.87-4.16-3.14-4.16c-1.66,0-2.8,1.17-3.24,2.44c-0.13,0.34-0.19,0.85-0.19,1.32v9.69h-4.16V-352.19z"/>
	<path d="M489.35-361.69c0,1.24-0.9,2.24-2.37,2.24c-1.38,0-2.29-1-2.28-2.24c-0.01-1.27,0.93-2.25,2.33-2.25
		C488.44-363.94,489.33-362.97,489.35-361.69z M484.94-340.63v-16.46h4.17v16.46H484.94z"/>
	<path d="M512.78-349.02c0,6.05-4.25,8.76-8.46,8.76c-4.64,0-8.24-3.2-8.24-8.48c0-5.4,3.56-8.72,8.52-8.72
		C509.5-357.46,512.78-354.01,512.78-349.02z M500.37-348.84c0,3.17,1.58,5.56,4.09,5.56c2.38,0,4.04-2.3,4.04-5.61
		c0-2.59-1.14-5.54-4.02-5.54C501.56-354.43,500.37-351.58,500.37-348.84z"/>
	<path d="M519.76-351.79c0-2.2-0.05-3.83-0.14-5.29h3.6l0.15,3.13h0.12c0.81-2.32,2.73-3.5,4.5-3.5c0.41,0,0.65,0.02,0.98,0.09v3.92
		c-0.35-0.08-0.72-0.12-1.22-0.12c-1.98,0-3.36,1.26-3.73,3.15c-0.07,0.37-0.11,0.81-0.11,1.26v8.54h-4.16V-351.79z"/>
	<path d="M535.15-344.46c0.92,0.57,2.71,1.2,4.2,1.2c1.83,0,2.65-0.77,2.65-1.85c0-1.12-0.68-1.68-2.7-2.4
		c-3.22-1.1-4.56-2.86-4.55-4.81c0-2.89,2.41-5.15,6.25-5.15c1.81,0,3.4,0.45,4.37,0.98l-0.82,2.92c-0.69-0.39-2.02-0.95-3.48-0.95
		c-1.48,0-2.31,0.73-2.31,1.74c0,1.05,0.79,1.55,2.87,2.31c3,1.06,4.38,2.59,4.39,5.01c0,3-2.34,5.17-6.68,5.17
		c-1.99,0-3.8-0.48-5.01-1.15L535.15-344.46z"/>
	<path d="M568.31-361.8v4.71h3.96v3.1h-3.96v7.26c0,2.01,0.54,3.04,2.13,3.04c0.71,0,1.24-0.08,1.62-0.18l0.08,3.17
		c-0.62,0.23-1.72,0.43-3.03,0.43c-1.53,0-2.8-0.52-3.58-1.36c-0.89-0.95-1.3-2.46-1.3-4.62v-7.74h-2.35v-3.1h2.35v-3.73
		L568.31-361.8z"/>
	<path d="M594.4-349.02c0,6.05-4.25,8.76-8.46,8.76c-4.64,0-8.24-3.2-8.24-8.48c0-5.4,3.56-8.72,8.52-8.72
		C591.12-357.46,594.4-354.01,594.4-349.02z M581.98-348.84c0,3.17,1.58,5.56,4.09,5.56c2.39,0,4.04-2.3,4.04-5.61
		c0-2.59-1.14-5.54-4.02-5.54C583.18-354.43,581.98-351.58,581.98-348.84z"/>
	<path d="M608.26-336.82c1.35-0.1,2.46-0.45,3.13-1.17c0.78-0.84,1.08-2.15,1.08-5.73v-13.37h4.17v14.57c0,3.42-0.66,5.55-2.16,7.01
		c-1.43,1.36-3.73,1.93-5.8,1.94L608.26-336.82z M616.86-361.69c0.01,1.23-0.89,2.24-2.37,2.24c-1.4,0-2.29-1.01-2.28-2.24
		c-0.01-1.27,0.93-2.25,2.34-2.25C615.97-363.94,616.85-362.96,616.86-361.69z"/>
	<path d="M639.33-345.56c0,1.96,0.06,3.59,0.14,4.93h-3.64l-0.2-2.49h-0.1c-0.7,1.15-2.32,2.86-5.27,2.86c-3,0-5.73-1.8-5.73-7.18
		v-9.65h4.17v8.96c0,2.73,0.86,4.48,3.07,4.48c1.67,0,2.75-1.16,3.18-2.22c0.14-0.36,0.22-0.81,0.22-1.29v-9.93h4.17V-345.56z"/>
	<path d="M647.39-352.19c0-1.9-0.06-3.47-0.13-4.9h3.64l0.21,2.47h0.1c0.73-1.28,2.51-2.84,5.24-2.84c2.87,0,5.85,1.85,5.85,7.05
		v9.78h-4.17v-9.29c0-2.36-0.87-4.16-3.14-4.16c-1.65,0-2.8,1.17-3.24,2.44c-0.13,0.34-0.19,0.85-0.19,1.32v9.69h-4.17V-352.19z"/>
	<path d="M674.7-361.69c0.01,1.24-0.9,2.24-2.37,2.24c-1.38,0-2.28-1-2.28-2.24c0-1.27,0.93-2.25,2.33-2.25
		C673.79-363.94,674.68-362.97,674.7-361.69z M670.29-340.63v-16.46h4.17v16.46H670.29z"/>
	<path d="M698.13-349.02c0,6.05-4.25,8.76-8.45,8.76c-4.64,0-8.24-3.2-8.24-8.48c0-5.4,3.56-8.72,8.52-8.72
		C694.85-357.46,698.13-354.01,698.13-349.02z M685.71-348.84c0,3.17,1.58,5.56,4.09,5.56c2.38,0,4.04-2.3,4.04-5.61
		c0-2.59-1.14-5.54-4.02-5.54C686.91-354.43,685.71-351.58,685.71-348.84z"/>
	<path d="M705.11-351.79c0-2.2-0.05-3.83-0.14-5.29h3.61l0.15,3.13h0.12c0.81-2.32,2.73-3.5,4.5-3.5c0.41,0,0.65,0.02,0.98,0.09
		v3.92c-0.36-0.08-0.72-0.12-1.22-0.12c-1.98,0-3.36,1.26-3.73,3.15c-0.07,0.37-0.11,0.81-0.11,1.26v8.54h-4.17V-351.79z"/>
	<path d="M720.5-344.46c0.92,0.57,2.71,1.2,4.2,1.2c1.83,0,2.65-0.77,2.65-1.85c0-1.12-0.68-1.68-2.7-2.4
		c-3.22-1.1-4.56-2.86-4.55-4.81c0-2.89,2.41-5.15,6.25-5.15c1.81,0,3.4,0.45,4.36,0.98l-0.82,2.92c-0.69-0.39-2.02-0.95-3.48-0.95
		c-1.48,0-2.31,0.73-2.31,1.74c0,1.05,0.79,1.55,2.87,2.31c2.99,1.06,4.38,2.59,4.39,5.01c0,3-2.34,5.17-6.68,5.17
		c-1.99,0-3.8-0.48-5.02-1.15L720.5-344.46z"/>
</g>
<g>
	<g>
		<path class="st4" d="M43.44-472.53h-86.64c-12.5,0-22.63,10.13-22.63,22.63v86.64c0,12.5,10.13,22.63,22.63,22.63h86.64
			c12.5,0,22.63-10.13,22.63-22.63v-86.64C66.07-462.4,55.94-472.53,43.44-472.53z M-9.72-350.01h-3.8v-48.84l-10.71-11.1
			c-2.12,1.52-4.71,2.42-7.52,2.42c-7.15,0-12.94-5.79-12.94-12.94s5.79-12.94,12.94-12.94s12.94,5.79,12.94,12.94
			c0,2.97-1.01,5.69-2.69,7.88l11.78,12.2V-350.01z M2.02-350.01h-3.8v-79.69c-8.48-0.95-15.1-8.16-15.1-16.89c0-9.37,7.63-17,17-17
			s17,7.63,17,17c0,8.73-6.62,15.94-15.1,16.89V-350.01z M31.98-407.53c-2.81,0-5.4-0.9-7.52-2.42l-10.71,11.1v48.84h-3.8v-50.38
			l11.78-12.2c-1.68-2.18-2.69-4.91-2.69-7.88c0-7.15,5.79-12.94,12.94-12.94c7.15,0,12.94,5.79,12.94,12.94
			S39.13-407.53,31.98-407.53z"/>
		<circle class="st4" cx="0.12" cy="-446.59" r="13.2"/>
	</g>
</g>
<g>
	<path class="st5" d="M873.95,49.92c-0.91,1.04-1.97,1.98-3.19,2.76c-1.37,0.88-2.83,1.52-4.32,1.91l1.55,48.45
		c2.74,0.43,5.35,1.6,7.51,3.45l43.15-27.9c-0.68-2.3-0.8-4.69-0.38-6.99L873.95,49.92z"/>
	<path class="st1" d="M924.95,61.56c-2.55,1.65-4.43,3.94-5.59,6.53L876,46.88c2.38-4.66,2.29-10.43-0.75-15.13
		c-4.53-7.01-13.92-9.02-20.93-4.49c-7.01,4.53-9.02,13.92-4.49,20.93c2.94,4.55,7.93,6.99,12.99,6.91l1.53,47.82
		c-2.39,0.2-4.76,0.97-6.91,2.36c-7.01,4.53-9.02,13.92-4.49,20.93c4.53,7.01,13.92,9.02,20.93,4.49
		c7.01-4.53,9.02-13.92,4.49-20.93c-0.12-0.19-0.25-0.38-0.39-0.56l42.14-27.25c0.1,0.18,0.21,0.36,0.32,0.53
		c4.53,7.01,13.92,9.02,20.93,4.49c7.01-4.53,9.02-13.92,4.49-20.93C941.34,59.04,931.95,57.03,924.95,61.56z M853.39,45.89
		c-3.26-5.05-1.81-11.81,3.23-15.07s11.81-1.81,15.07,3.23c2.21,3.41,2.25,7.6,0.5,10.97c-0.57,1.09-1.32,2.08-2.25,2.94l-3.64,2.24
		c-1.17,0.43-2.39,0.65-3.61,0.66C859.07,50.9,855.5,49.15,853.39,45.89z M874.82,112.07c3.26,5.05,1.81,11.81-3.23,15.07
		c-5.05,3.26-11.81,1.81-15.07-3.23c-3.26-5.05-1.81-11.81,3.23-15.07c1.48-0.96,3.11-1.5,4.75-1.67c1.22-0.13,2.45-0.05,3.64,0.22
		c1.27,0.3,2.49,0.81,3.59,1.55c1.02,0.68,1.93,1.55,2.69,2.58C874.55,111.7,874.69,111.87,874.82,112.07z M875.5,106.49
		c-2.16-1.85-4.77-3.02-7.51-3.45l-1.55-48.45c1.49-0.4,2.95-1.03,4.32-1.91c1.22-0.79,2.28-1.72,3.19-2.76l44.33,21.68
		c-0.41,2.3-0.3,4.69,0.38,6.99L875.5,106.49z M939.08,83.42c-5.05,3.26-11.81,1.81-15.07-3.23c-0.11-0.18-0.21-0.36-0.31-0.54
		c-0.63-1.11-1.06-2.3-1.27-3.5c-0.15-0.86-0.18-1.73-0.12-2.58c0.08-1.25,0.37-2.47,0.86-3.62c0.82-1.92,2.2-3.62,4.08-4.83
		c5.05-3.26,11.81-1.81,15.07,3.24C945.58,73.4,944.13,80.16,939.08,83.42z"/>
</g>
</svg>
