<?xml version="1.0" encoding="utf-8"?>
<!-- Generator: Adobe Illustrator 27.3.1, SVG Export Plug-In . SVG Version: 6.00 Build 0)  -->
<svg version="1.1" id="Capa_1" xmlns="http://www.w3.org/2000/svg" xmlns:xlink="http://www.w3.org/1999/xlink" x="0px" y="0px"
	 viewBox="0 0 922.4 108.2" style="enable-background:new 0 0 922.4 108.2;" xml:space="preserve">
<style type="text/css">
	.st0{fill:#6EE00E;}
	.st1{fill:#289E5A;}
	.st2{fill:url(#SVGID_1_);}
	.st3{fill:#3F6AC9;}
	.st4{fill:none;}
</style>
<g>
	<circle class="st0" cx="749.8" cy="85.3" r="13.2"/>
	<path class="st1" d="M733.8,80.3l-6.5,21.1h-22.6l31.4-94.7h27.5l31.5,94.7h-24l-6.5-21.1l-7.9-26.2l-7.2-24.2l-10.1,32.8
		L733.8,80.3z"/>
	<path class="st1" d="M561.7,101.4h-60.4V6.7h59.4v19.8h-37.2v55.1h38.3L561.7,101.4L561.7,101.4z"/>
	<circle class="st0" cx="540.8" cy="54" r="13.2"/>
	<circle class="st0" cx="360" cy="85.3" r="13.2"/>
	<path class="st1" d="M72.4,27.8H47.2v73.6h-22V27.8H0V6.7h72.4C72.4,6.7,72.4,27.8,72.4,27.8z"/>
	<path class="st1" d="M147.3,101.4H86.8V6.7h59.4v19.8H109v55.1h38.3V101.4z"/>
	<path class="st1" d="M156.7,54.1c0-7.4,1.1-14.1,3.4-20.2c2.3-6,5.4-11.2,9.3-15.5c4-4.3,8.6-7.6,13.9-9.9c5.3-2.3,11-3.5,17.1-3.5
		c3.7,0,7.4,0.5,11.1,1.5s7.1,2.5,10.3,4.5s6.1,4.4,8.6,7.4c2.5,2.9,4.5,6.4,6,10.4l-19,9.6c-0.7-1.6-1.6-3.2-2.7-4.7
		c-1.1-1.5-2.4-2.9-3.9-4.1s-3.1-2.2-4.8-2.9c-1.8-0.8-3.6-1.1-5.6-1.1c-2.6,0-5.1,0.6-7.5,1.8c-2.4,1.2-4.5,3-6.3,5.4
		s-3.3,5.3-4.3,8.9c-1.1,3.6-1.6,7.6-1.6,12.2c0,4.7,0.5,8.8,1.6,12.3s2.5,6.5,4.3,8.8c1.8,2.4,3.9,4.2,6.3,5.3s4.9,1.8,7.5,1.8
		c2,0,3.9-0.4,5.6-1.1c1.7-0.8,3.4-1.7,4.8-2.9s2.8-2.6,3.9-4.2c1.1-1.6,2-3.2,2.7-4.8l19,9.6c-1.8,4.1-3.9,7.6-6.5,10.6
		s-5.4,5.5-8.6,7.5c-3.1,2-6.5,3.5-10,4.4s-7.2,1.4-10.9,1.4c-6.3,0-12.1-1.2-17.4-3.4c-5.3-2.3-9.9-5.6-13.9-9.8s-7-9.4-9.2-15.4
		C157.8,68.3,156.7,61.6,156.7,54.1z"/>
	<path class="st1" d="M306,101.4h-56V6.7h22v73.6h34V101.4L306,101.4z"/>
	<path class="st1" d="M343.9,80.3l-6.5,21.1h-22.6l31.4-94.7h27.5l31.5,94.7h-24l-6.5-21.1l-7.9-26.2l-7.2-24.2l-10.1,32.8
		L343.9,80.3z"/>
	<path class="st1" d="M486.3,36.7c0,7.6-1.6,13.9-4.7,18.9s-7.6,8.7-13.4,11c-2.1,0.9-4.5,1.6-7.2,2.1s-5.7,0.7-9.2,0.7h-12.6v32.1
		h-22V6.7h34c4.7,0,8.7,0.4,12.1,1.2c3.4,0.8,6.4,1.9,9.1,3.4c4.4,2.5,7.8,5.8,10.2,10C485.1,25.6,486.3,30.7,486.3,36.7z M451,50.7
		c2.1,0,3.7-0.2,5-0.7s2.4-1.1,3.3-1.9c1.4-1.2,2.3-2.8,3-4.6c0.6-1.8,1-3.7,1-5.6c0-3.6-1-6.7-3.1-9.1c-0.9-1.1-2-1.9-3.4-2.5
		s-3.2-0.9-5.4-0.9h-12.1v25.4L451,50.7L451,50.7z"/>
	<path class="st1" d="M655.4,54c0,8.1-1.7,15.8-5,23c-3.3,7.3-8.3,13.1-14.9,17.5c-3.2,2.1-6.9,3.8-10.9,5s-8.5,1.9-13.4,1.9h-33.5
		V6.7h32.5c5.5,0,10.3,0.6,14.6,1.8c4.3,1.2,8.1,2.9,11.4,4.9c3.4,2.2,6.3,4.8,8.8,7.9s4.4,6.4,6,10c1.5,3.6,2.7,7.3,3.4,11.2
		C655,46.3,655.4,50.2,655.4,54z M631.9,54c0-5.9-0.7-10.8-2.2-14.6s-3.3-6.8-5.7-8.9c-2-1.8-4.2-3.2-6.5-4
		c-2.4-0.8-4.8-1.2-7.4-1.2h-10.5v57.5h10.6c2.5,0,5-0.4,7.4-1.3c2.4-0.9,4.6-2.3,6.5-4.2c2.3-2.3,4.2-5.3,5.6-9.2
		C631.2,64.2,631.9,59.5,631.9,54z"/>
	<path class="st1" d="M670.6,101.4V6.7h22v94.7H670.6z"/>
	<circle class="st0" cx="126.4" cy="54" r="13.2"/>
</g>
<linearGradient id="SVGID_1_" gradientUnits="userSpaceOnUse" x1="73.9" y1="381.3528" x2="928.8" y2="381.3528" gradientTransform="matrix(1 0 0 1 0 -868)">
	<stop  offset="0" style="stop-color:#335FA9"/>
	<stop  offset="0.3492" style="stop-color:#008CB7"/>
	<stop  offset="0.6106" style="stop-color:#33B5B3"/>
	<stop  offset="1" style="stop-color:#93C14C"/>
</linearGradient>
<path class="st2" d="M73.9-528.5h69.5v5.1h-31.9v78.4h-5.7v-78.5H73.9C73.9-523.3,73.9-528.5,73.9-528.5z M166.9-484.1h53v-5.1h-53
	V-484.1z M166.9-523.3h53v-5.1h-53V-523.3z M166.9-444.9h53v-5.1h-53V-444.9z M618.5-444.9h53v-5.1h-53V-444.9z M618.5-484.1h53
	v-5.1h-53V-484.1z M618.5-523.3h53v-5.1h-53V-523.3z M262.7-512.6c3.4-3.3,7.4-5.9,12-7.8c9.2-3.8,20.1-3.8,29.3-0.1
	c4.6,1.9,8.6,4.6,12,8l0.7,0.7l3.7-3.6l-0.7-0.7c-3.9-3.9-8.5-6.9-13.8-9.1c-5.2-2.1-10.8-3.2-16.6-3.2c-7.7,0-15,1.9-21.5,5.6
	c-6.6,3.7-11.8,8.8-15.7,15.2c-3.8,6.4-5.8,13.4-5.8,21c0,7.5,2,14.6,5.8,21s9.1,11.5,15.7,15.2c6.5,3.7,13.8,5.6,21.5,5.6
	c5.8,0,11.4-1.1,16.6-3.2s9.8-5.1,13.8-9l0.7-0.7l-3.7-3.8l-0.7,0.7c-3.4,3.4-7.5,6.1-12,8c-4.6,1.9-9.5,2.8-14.6,2.8
	c-6.8,0-13.2-1.6-19-4.9c-5.8-3.2-10.4-7.7-13.7-13.3c-3.3-5.6-5-11.8-5-18.4c0-5,1-9.8,3-14.2C256.6-505.4,259.3-509.3,262.7-512.6
	z M355.9-528.5h-5.7v83.6h54.5v-5.1h-48.8V-528.5L355.9-528.5z M454.7-528.5l-38.4,83.6h6.4l34.7-75.7l34.8,75.7h6.3l-38.3-83.6
	L454.7-528.5L454.7-528.5z M890.8-527.9l-0.3-0.6H885l-38.4,83.6h6.4l34.7-75.7l34.8,75.7h6.3L890.8-527.9z M816.2-444.9h5.7v-83.6
	h-5.7V-444.9z M760.2-522.9c-7.5-3.7-15.7-5.6-24.5-5.6h-27.1v5.1h27.1c7.8,0,15.2,1.7,21.8,5s11.9,7.8,15.7,13.4s5.7,11.7,5.7,18.3
	c0,6.6-1.9,12.8-5.7,18.4s-9.1,10.1-15.7,13.4c-6.6,3.3-14,4.9-21.8,4.9h-22.5v-34.7h-4.6v38.8l0.1,1h27.1c8.8,0,17-1.9,24.5-5.6
	s13.5-8.8,17.8-15.2c4.4-6.4,6.6-13.5,6.6-21s-2.2-14.6-6.6-21C773.6-514.1,767.6-519.2,760.2-522.9z M559.8-528.5h-33.4v5.3h33.4
	c11.9,0,21.6,9.7,21.6,21.6v2.8c0,11.9-9.7,21.6-21.6,21.6h-36v32.3h5.3v-27h30.7c14.8,0,26.9-12,26.9-26.9v-2.8
	C586.7-516.5,574.6-528.5,559.8-528.5z"/>
<g>
	<path d="M306.8-396.6V-410h-2.2v-3.1h2.2v-0.7c0-2.1,0.6-4.3,2-5.6c1.2-1.2,2.9-1.6,4.3-1.6c1.1,0,2,0.2,2.6,0.4l-0.3,3.2
		c-0.5-0.2-1-0.3-1.8-0.3c-2.1,0-2.8,1.7-2.8,3.8v0.9h3.6v3.1h-3.6v13.4L306.8-396.6L306.8-396.6z"/>
	<path d="M320.7-407.8c0-2.2,0-3.8-0.1-5.3h3.6l0.1,3.1h0.1c0.8-2.3,2.7-3.5,4.5-3.5c0.4,0,0.6,0,1,0.1v3.9
		c-0.4-0.1-0.7-0.1-1.2-0.1c-2,0-3.4,1.3-3.7,3.1c-0.1,0.4-0.1,0.8-0.1,1.3v8.5h-4.2L320.7-407.8L320.7-407.8z"/>
	<path d="M351.6-405c0,6-4.2,8.8-8.5,8.8c-4.6,0-8.2-3.2-8.2-8.5c0-5.4,3.6-8.7,8.5-8.7C348.3-413.5,351.6-410,351.6-405z
		 M339.2-404.8c0,3.2,1.6,5.6,4.1,5.6c2.4,0,4-2.3,4-5.6c0-2.6-1.1-5.5-4-5.5C340.4-410.4,339.2-407.6,339.2-404.8z"/>
	<path d="M358.6-408.2c0-1.9-0.1-3.5-0.1-4.9h3.6l0.2,2.4h0.1c0.8-1.3,2.3-2.8,5.1-2.8c2.2,0,3.9,1.2,4.6,3h0.1
		c0.6-0.9,1.3-1.6,2-2.1c0.9-0.6,2-1,3.4-1c2.7,0,5.5,1.9,5.5,7.1v9.7h-4.3v-9.1c0-2.7-1-4.4-2.9-4.4c-1.4,0-2.5,1-2.9,2.2
		c-0.1,0.4-0.2,0.9-0.2,1.4v9.9h-4.1v-9.5c0-2.3-0.9-3.9-2.8-3.9c-1.6,0-2.6,1.2-3,2.4c-0.1,0.4-0.2,0.9-0.2,1.4v9.7h-4.1V-408.2
		L358.6-408.2z"/>
	<path d="M397.7-392.8c1.4-0.1,2.5-0.5,3.1-1.2c0.8-0.8,1.1-2.1,1.1-5.7v-13.4h4.2v14.6c0,3.4-0.7,5.5-2.2,7
		c-1.4,1.4-3.7,1.9-5.8,1.9L397.7-392.8z M406.3-417.7c0,1.2-0.9,2.2-2.4,2.2c-1.4,0-2.3-1-2.3-2.2c0-1.3,0.9-2.2,2.3-2.2
		S406.3-419,406.3-417.7z"/>
	<path d="M428.8-401.6c0,2,0.1,3.6,0.1,4.9h-3.6l-0.2-2.5H425c-0.7,1.1-2.3,2.9-5.3,2.9s-5.7-1.8-5.7-7.2v-9.6h4.2v9
		c0,2.7,0.9,4.5,3.1,4.5c1.7,0,2.8-1.2,3.2-2.2c0.1-0.4,0.2-0.8,0.2-1.3v-9.9h4.2v11.4H428.8z"/>
	<path d="M436.8-408.2c0-1.9-0.1-3.5-0.1-4.9h3.6l0.2,2.5h0.1c0.7-1.3,2.5-2.8,5.2-2.8c2.9,0,5.9,1.9,5.9,7v9.8h-4.2v-9.3
		c0-2.4-0.9-4.2-3.1-4.2c-1.7,0-2.8,1.2-3.2,2.4c-0.1,0.3-0.2,0.9-0.2,1.3v9.7h-4.2V-408.2L436.8-408.2z"/>
	<path d="M464.2-417.7c0,1.2-0.9,2.2-2.4,2.2c-1.4,0-2.3-1-2.3-2.2c0-1.3,0.9-2.2,2.3-2.2C463.2-419.9,464.1-419,464.2-417.7z
		 M459.7-396.6v-16.5h4.2v16.5H459.7z"/>
	<path d="M487.6-405c0,6-4.2,8.8-8.5,8.8c-4.6,0-8.2-3.2-8.2-8.5c0-5.4,3.6-8.7,8.5-8.7C484.3-413.5,487.6-410,487.6-405z
		 M475.2-404.8c0,3.2,1.6,5.6,4.1,5.6c2.4,0,4-2.3,4-5.6c0-2.6-1.1-5.5-4-5.5C476.4-410.4,475.2-407.6,475.2-404.8z"/>
	<path d="M494.6-407.8c0-2.2,0-3.8-0.1-5.3h3.6l0.2,3.1h0.1c0.8-2.3,2.7-3.5,4.5-3.5c0.4,0,0.7,0,1,0.1v3.9
		c-0.3-0.1-0.7-0.1-1.2-0.1c-2,0-3.4,1.3-3.7,3.1c-0.1,0.4-0.1,0.8-0.1,1.3v8.5h-4.2L494.6-407.8L494.6-407.8z"/>
	<path d="M510-400.5c0.9,0.6,2.7,1.2,4.2,1.2c1.8,0,2.7-0.8,2.7-1.9s-0.7-1.7-2.7-2.4c-3.2-1.1-4.6-2.9-4.5-4.8
		c0-2.9,2.4-5.1,6.2-5.1c1.8,0,3.4,0.5,4.4,1l-0.8,2.9c-0.7-0.4-2-1-3.5-1s-2.3,0.7-2.3,1.7s0.8,1.5,2.9,2.3c3,1.1,4.4,2.6,4.4,5
		c0,3-2.3,5.2-6.7,5.2c-2,0-3.8-0.5-5-1.1L510-400.5z"/>
	<path d="M543.1-417.8v4.7h4v3.1h-4v7.3c0,2,0.5,3,2.1,3c0.7,0,1.2-0.1,1.6-0.2l0.1,3.2c-0.6,0.2-1.7,0.4-3,0.4
		c-1.5,0-2.8-0.5-3.6-1.4c-0.9-1-1.3-2.5-1.3-4.6v-7.7h-2.3v-3.1h2.3v-3.7L543.1-417.8z"/>
	<path d="M569.2-405c0,6-4.2,8.8-8.5,8.8c-4.6,0-8.2-3.2-8.2-8.5c0-5.4,3.6-8.7,8.5-8.7C565.9-413.5,569.2-410,569.2-405z
		 M556.8-404.8c0,3.2,1.6,5.6,4.1,5.6c2.4,0,4-2.3,4-5.6c0-2.6-1.1-5.5-4-5.5C558-410.4,556.8-407.6,556.8-404.8z"/>
	<path d="M583.1-392.8c1.3-0.1,2.5-0.5,3.1-1.2c0.8-0.8,1.1-2.1,1.1-5.7v-13.4h4.2v14.6c0,3.4-0.7,5.5-2.2,7
		c-1.4,1.4-3.7,1.9-5.8,1.9L583.1-392.8z M591.7-417.7c0,1.2-0.9,2.2-2.4,2.2c-1.4,0-2.3-1-2.3-2.2c0-1.3,0.9-2.2,2.3-2.2
		C590.8-419.9,591.6-419,591.7-417.7z"/>
	<path d="M614.1-401.6c0,2,0.1,3.6,0.1,4.9h-3.6l-0.2-2.5h-0.1c-0.7,1.1-2.3,2.9-5.3,2.9s-5.7-1.8-5.7-7.2v-9.6h4.2v9
		c0,2.7,0.9,4.5,3.1,4.5c1.7,0,2.8-1.2,3.2-2.2c0.1-0.4,0.2-0.8,0.2-1.3v-9.9h4.2L614.1-401.6L614.1-401.6z"/>
	<path d="M622.2-408.2c0-1.9-0.1-3.5-0.1-4.9h3.6l0.2,2.5h0.1c0.7-1.3,2.5-2.8,5.2-2.8c2.9,0,5.8,1.9,5.8,7v9.8h-4.2v-9.3
		c0-2.4-0.9-4.2-3.1-4.2c-1.7,0-2.8,1.2-3.2,2.4c-0.1,0.3-0.2,0.9-0.2,1.3v9.7h-4.2v-11.5H622.2z"/>
	<path d="M649.5-417.7c0,1.2-0.9,2.2-2.4,2.2c-1.4,0-2.3-1-2.3-2.2c0-1.3,0.9-2.2,2.3-2.2C648.6-419.9,649.5-419,649.5-417.7z
		 M645.1-396.6v-16.5h4.2v16.5H645.1z"/>
	<path d="M672.9-405c0,6-4.2,8.8-8.5,8.8c-4.6,0-8.2-3.2-8.2-8.5c0-5.4,3.6-8.7,8.5-8.7C669.6-413.5,672.9-410,672.9-405z
		 M660.5-404.8c0,3.2,1.6,5.6,4.1,5.6c2.4,0,4-2.3,4-5.6c0-2.6-1.1-5.5-4-5.5C661.7-410.4,660.5-407.6,660.5-404.8z"/>
	<path d="M679.9-407.8c0-2.2,0-3.8-0.1-5.3h3.6l0.2,3.1h0.1c0.8-2.3,2.7-3.5,4.5-3.5c0.4,0,0.7,0,1,0.1v3.9
		c-0.4-0.1-0.7-0.1-1.2-0.1c-2,0-3.4,1.3-3.7,3.1c-0.1,0.4-0.1,0.8-0.1,1.3v8.5H680L679.9-407.8L679.9-407.8z"/>
	<path d="M695.3-400.5c0.9,0.6,2.7,1.2,4.2,1.2c1.8,0,2.7-0.8,2.7-1.9s-0.7-1.7-2.7-2.4c-3.2-1.1-4.6-2.9-4.5-4.8
		c0-2.9,2.4-5.1,6.2-5.1c1.8,0,3.4,0.5,4.4,1l-0.8,2.9c-0.7-0.4-2-1-3.5-1s-2.3,0.7-2.3,1.7s0.8,1.5,2.9,2.3c3,1.1,4.4,2.6,4.4,5
		c0,3-2.3,5.2-6.7,5.2c-2,0-3.8-0.5-5-1.1L695.3-400.5z"/>
</g>
<g>
	<g>
		<path class="st3" d="M18.2-528.5h-86.6c-12.5,0-22.6,10.1-22.6,22.6v86.6c0,12.5,10.1,22.6,22.6,22.6h86.6
			c12.5,0,22.6-10.1,22.6-22.6v-86.6C40.9-518.4,30.7-528.5,18.2-528.5z M-34.9-406h-3.8v-48.8L-49.4-466c-2.1,1.5-4.7,2.4-7.5,2.4
			c-7.2,0-12.9-5.8-12.9-12.9s5.8-12.9,12.9-12.9s12.9,5.8,12.9,12.9c0,3-1,5.7-2.7,7.9l11.8,12.2V-406z M-23.2-406H-27v-79.7
			c-8.5-1-15.1-8.2-15.1-16.9c0-9.4,7.6-17,17-17s17,7.6,17,17c0,8.7-6.6,15.9-15.1,16.9V-406z M6.8-463.5c-2.8,0-5.4-0.9-7.5-2.4
			l-10.7,11.1v48.8h-3.9v-50.4l11.8-12.2c-1.7-2.2-2.7-4.9-2.7-7.9c0-7.1,5.8-12.9,12.9-12.9s12.9,5.8,12.9,12.9
			S13.9-463.5,6.8-463.5z"/>
		
			<ellipse transform="matrix(1 -5.537379e-03 5.537379e-03 1 2.7825 -0.1466)" class="st3" cx="-25.1" cy="-502.6" rx="13.2" ry="13.2"/>
	</g>
</g>
<g>
	<path class="st4" d="M848.8,25.1c-0.9,1-2,2-3.2,2.8c-1.4,0.9-2.8,1.5-4.3,1.9l1.5,48.4c2.7,0.4,5.3,1.6,7.5,3.4l43.2-27.9
		c-0.7-2.3-0.8-4.7-0.4-7L848.8,25.1z"/>
	<path class="st0" d="M899.8,36.7c-2.5,1.7-4.4,3.9-5.6,6.5L850.8,22c2.4-4.7,2.3-10.4-0.8-15.1c-4.5-7-13.9-9-20.9-4.5
		s-9,13.9-4.5,20.9c2.9,4.5,7.9,7,13,6.9l1.5,47.8c-2.4,0.2-4.8,1-6.9,2.4c-7,4.5-9,13.9-4.5,20.9s13.9,9,20.9,4.5s9-13.9,4.5-20.9
		c-0.1-0.2-0.2-0.4-0.4-0.6l42.1-27.2c0.1,0.2,0.2,0.4,0.3,0.5c4.5,7,13.9,9,20.9,4.5s9-13.9,4.5-20.9
		C916.1,34.2,906.8,32.2,899.8,36.7z M828.2,21c-3.3-5.1-1.8-11.8,3.2-15.1s11.8-1.8,15.1,3.2c2.2,3.4,2.2,7.6,0.5,11
		c-0.6,1.1-1.3,2.1-2.2,2.9l-3.6,2.2c-1.2,0.4-2.4,0.7-3.6,0.7C833.9,26.1,830.3,24.3,828.2,21z M849.6,87.2
		c3.3,5.1,1.8,11.8-3.2,15.1s-11.8,1.8-15.1-3.2c-3.3-5.1-1.8-11.8,3.2-15.1c1.5-1,3.1-1.5,4.8-1.7c1.2-0.1,2.5-0.1,3.6,0.2
		c1.3,0.3,2.5,0.8,3.6,1.6c1,0.7,1.9,1.6,2.7,2.6C849.3,86.8,849.5,87,849.6,87.2z M850.3,81.6c-2.2-1.9-4.8-3-7.5-3.4l-1.5-48.5
		c1.5-0.4,3-1,4.3-1.9c1.2-0.8,2.3-1.7,3.2-2.8l44.3,21.7c-0.4,2.3-0.3,4.7,0.4,7L850.3,81.6z M913.9,58.6c-5,3.3-11.8,1.8-15.1-3.2
		c-0.1-0.2-0.2-0.4-0.3-0.5c-0.6-1.1-1.1-2.3-1.3-3.5c-0.2-0.9-0.2-1.7-0.1-2.6c0.1-1.2,0.4-2.5,0.9-3.6c0.8-1.9,2.2-3.6,4.1-4.8
		c5-3.3,11.8-1.8,15.1,3.2C920.4,48.6,918.9,55.3,913.9,58.6z"/>
</g>
</svg>
