<?xml version="1.0" encoding="utf-8"?>
<!-- Generator: Adobe Illustrator 27.3.1, SVG Export Plug-In . SVG Version: 6.00 Build 0)  -->
<svg version="1.1" id="Capa_1" xmlns="http://www.w3.org/2000/svg" xmlns:xlink="http://www.w3.org/1999/xlink" x="0px" y="0px"
	 viewBox="0 0 100.8 112.9" style="enable-background:new 0 0 100.8 112.9;" xml:space="preserve">
<style type="text/css">
	.st0{fill:url(#SVGID_1_);}
	.st1{fill:#3F6AC9;}
	.st2{fill:none;}
	.st3{fill:#6EE00E;}
</style>
<linearGradient id="SVGID_1_" gradientUnits="userSpaceOnUse" x1="-748.2209" y1="384.3514" x2="106.6792" y2="384.3514" gradientTransform="matrix(1 0 0 1 0 -868)">
	<stop  offset="0" style="stop-color:#335FA9"/>
	<stop  offset="0.3492" style="stop-color:#008CB7"/>
	<stop  offset="0.6106" style="stop-color:#33B5B3"/>
	<stop  offset="1" style="stop-color:#93C14C"/>
</linearGradient>
<path class="st0" d="M-748.2-525.5h69.5v5.1h-31.9v78.4h-5.7v-78.5h-31.9C-748.2-520.3-748.2-525.5-748.2-525.5z M-655.1-481.1h53
	v-5.1h-53V-481.1z M-655.1-520.3h53v-5.1h-53V-520.3z M-655.1-441.9h53v-5.1h-53V-441.9z M-203.6-441.9h53v-5.1h-53V-441.9z
	 M-203.6-481.1h53v-5.1h-53V-481.1z M-203.6-520.3h53v-5.1h-53V-520.3z M-559.4-509.6c3.4-3.3,7.4-5.9,12-7.8
	c9.2-3.8,20.1-3.8,29.3-0.1c4.6,1.9,8.6,4.6,12,8l0.7,0.7l3.7-3.6l-0.7-0.7c-3.9-3.9-8.5-6.9-13.8-9.1c-5.2-2.1-10.8-3.2-16.6-3.2
	c-7.7,0-15,1.9-21.5,5.6c-6.6,3.7-11.8,8.8-15.7,15.2c-3.8,6.4-5.8,13.4-5.8,21c0,7.5,1.9,14.6,5.8,21c3.8,6.4,9.1,11.5,15.7,15.2
	c6.6,3.7,13.8,5.6,21.5,5.6c5.8,0,11.4-1.1,16.6-3.2s9.8-5.1,13.8-9l0.7-0.7l-3.7-3.8l-0.7,0.7c-3.4,3.4-7.5,6.1-12,8
	c-4.6,1.9-9.5,2.8-14.6,2.8c-6.8,0-13.2-1.6-19-4.9c-5.8-3.2-10.4-7.7-13.7-13.3c-3.3-5.6-5-11.8-5-18.4c0-5,1-9.8,3-14.2
	C-565.5-502.4-562.8-506.3-559.4-509.6z M-466.2-525.5h-5.7v83.6h54.5v-5.1h-48.8V-525.5L-466.2-525.5z M-367.4-525.5l-38.4,83.6
	h6.4l34.7-75.7l34.8,75.7h6.3l-38.3-83.6L-367.4-525.5L-367.4-525.5z M68.7-524.9l-0.3-0.6h-5.5l-38.4,83.6h6.4l34.7-75.7l34.8,75.7
	h6.3L68.7-524.9z M-5.9-441.9h5.7v-83.6h-5.7C-5.9-525.5-5.9-441.9-5.9-441.9z M-61.9-519.9c-7.5-3.7-15.7-5.6-24.5-5.6h-27.1v5.1
	h27.1c7.8,0,15.2,1.7,21.8,5s11.9,7.8,15.7,13.4s5.7,11.7,5.7,18.3c0,6.6-1.9,12.8-5.7,18.4c-3.8,5.6-9.1,10.1-15.7,13.4
	s-14,4.9-21.8,4.9h-22.5v-34.7h-4.6v38.8l0.1,1h27.1c8.8,0,17-1.9,24.5-5.6s13.5-8.8,17.8-15.2c4.4-6.4,6.6-13.5,6.6-21
	s-2.2-14.6-6.6-21C-48.5-511.1-54.5-516.2-61.9-519.9z M-262.3-525.5h-33.4v5.3h33.4c11.9,0,21.6,9.7,21.6,21.6v2.8
	c0,11.9-9.7,21.6-21.6,21.6h-36v32.3h5.3v-27h30.8c14.8,0,26.9-12,26.9-26.9v-2.8C-235.4-513.5-247.5-525.5-262.3-525.5z"/>
<g>
	<path d="M-515.3-393.6V-407h-2.2v-3.1h2.2v-0.7c0-2.1,0.6-4.3,2-5.6c1.2-1.2,2.9-1.6,4.3-1.6c1.1,0,2,0.2,2.6,0.4l-0.3,3.2
		c-0.5-0.2-1-0.3-1.8-0.3c-2.1,0-2.8,1.7-2.8,3.8v0.9h3.6v3.1h-3.6v13.4L-515.3-393.6L-515.3-393.6z"/>
	<path d="M-501.4-404.8c0-2.2,0-3.8-0.1-5.3h3.6l0.1,3.1h0.1c0.8-2.3,2.7-3.5,4.5-3.5c0.4,0,0.6,0,1,0.1v3.9
		c-0.4-0.1-0.7-0.1-1.2-0.1c-2,0-3.4,1.3-3.7,3.1c-0.1,0.4-0.1,0.8-0.1,1.3v8.5h-4.2L-501.4-404.8L-501.4-404.8z"/>
	<path d="M-470.5-402c0,6-4.2,8.8-8.5,8.8c-4.6,0-8.2-3.2-8.2-8.5c0-5.4,3.6-8.7,8.5-8.7C-473.8-410.5-470.5-407-470.5-402z
		 M-482.9-401.8c0,3.2,1.6,5.6,4.1,5.6c2.4,0,4-2.3,4-5.6c0-2.6-1.1-5.5-4-5.5C-481.7-407.4-482.9-404.6-482.9-401.8z"/>
	<path d="M-463.5-405.2c0-1.9-0.1-3.5-0.1-4.9h3.6l0.2,2.4h0.1c0.8-1.3,2.3-2.8,5.1-2.8c2.2,0,3.9,1.2,4.6,3h0.1
		c0.6-0.9,1.3-1.6,2-2.1c0.9-0.6,2-1,3.4-1c2.7,0,5.5,1.9,5.5,7.1v9.7h-4.1v-9.1c0-2.7-1-4.4-2.9-4.4c-1.4,0-2.5,1-2.9,2.2
		c-0.1,0.4-0.2,0.9-0.2,1.4v9.9h-4.1v-9.5c0-2.3-0.9-3.9-2.8-3.9c-1.6,0-2.6,1.2-3,2.4c-0.1,0.4-0.2,0.9-0.2,1.4v9.7h-4.1
		L-463.5-405.2L-463.5-405.2z"/>
	<path d="M-424.4-389.8c1.4-0.1,2.5-0.5,3.1-1.2c0.8-0.8,1.1-2.1,1.1-5.7v-13.4h4.2v14.6c0,3.4-0.7,5.5-2.2,7
		c-1.4,1.4-3.7,1.9-5.8,1.9L-424.4-389.8z M-415.8-414.7c0,1.2-0.9,2.2-2.4,2.2c-1.4,0-2.3-1-2.3-2.2c0-1.3,0.9-2.2,2.3-2.2
		S-415.8-416-415.8-414.7z"/>
	<path d="M-393.3-398.6c0,2,0.1,3.6,0.1,4.9h-3.6l-0.2-2.5h-0.1c-0.7,1.1-2.3,2.9-5.3,2.9s-5.7-1.8-5.7-7.2v-9.6h4.2v9
		c0,2.7,0.9,4.5,3.1,4.5c1.7,0,2.8-1.2,3.2-2.2c0.1-0.4,0.2-0.8,0.2-1.3v-9.9h4.2v11.4H-393.3z"/>
	<path d="M-385.3-405.2c0-1.9-0.1-3.5-0.1-4.9h3.6l0.2,2.5h0.1c0.7-1.3,2.5-2.8,5.2-2.8c2.9,0,5.9,1.9,5.9,7v9.8h-4.2v-9.3
		c0-2.4-0.9-4.2-3.1-4.2c-1.7,0-2.8,1.2-3.2,2.4c-0.1,0.3-0.2,0.9-0.2,1.3v9.7h-4.2L-385.3-405.2L-385.3-405.2z"/>
	<path d="M-357.9-414.7c0,1.2-0.9,2.2-2.4,2.2c-1.4,0-2.3-1-2.3-2.2c0-1.3,0.9-2.2,2.3-2.2C-358.9-416.9-358-416-357.9-414.7z
		 M-362.4-393.6v-16.5h4.2v16.5H-362.4z"/>
	<path d="M-334.5-402c0,6-4.2,8.8-8.5,8.8c-4.6,0-8.2-3.2-8.2-8.5c0-5.4,3.6-8.7,8.5-8.7C-337.8-410.5-334.5-407-334.5-402z
		 M-346.9-401.8c0,3.2,1.6,5.6,4.1,5.6c2.4,0,4-2.3,4-5.6c0-2.6-1.1-5.5-4-5.5C-345.7-407.4-346.9-404.6-346.9-401.8z"/>
	<path d="M-327.5-404.8c0-2.2,0-3.8-0.1-5.3h3.6l0.2,3.1h0.1c0.8-2.3,2.7-3.5,4.5-3.5c0.4,0,0.7,0,1,0.1v3.9
		c-0.3-0.1-0.7-0.1-1.2-0.1c-2,0-3.4,1.3-3.7,3.1c-0.1,0.4-0.1,0.8-0.1,1.3v8.5h-4.2L-327.5-404.8L-327.5-404.8z"/>
	<path d="M-312.1-397.5c0.9,0.6,2.7,1.2,4.2,1.2c1.8,0,2.7-0.8,2.7-1.9s-0.7-1.7-2.7-2.4c-3.2-1.1-4.6-2.9-4.5-4.8
		c0-2.9,2.4-5.1,6.2-5.1c1.8,0,3.4,0.5,4.4,1l-0.8,2.9c-0.7-0.4-2-1-3.5-1s-2.3,0.7-2.3,1.7s0.8,1.5,2.9,2.3c3,1.1,4.4,2.6,4.4,5
		c0,3-2.3,5.2-6.7,5.2c-2,0-3.8-0.5-5-1.1L-312.1-397.5z"/>
	<path d="M-279-414.8v4.7h4v3.1h-4v7.3c0,2,0.5,3,2.1,3c0.7,0,1.2-0.1,1.6-0.2l0.1,3.2c-0.6,0.2-1.7,0.4-3,0.4
		c-1.5,0-2.8-0.5-3.6-1.4c-0.9-1-1.3-2.5-1.3-4.6v-7.7h-2.3v-3.1h2.3v-3.7L-279-414.8z"/>
	<path d="M-252.9-402c0,6-4.2,8.8-8.5,8.8c-4.6,0-8.2-3.2-8.2-8.5c0-5.4,3.6-8.7,8.5-8.7C-256.2-410.5-252.9-407-252.9-402z
		 M-265.3-401.8c0,3.2,1.6,5.6,4.1,5.6c2.4,0,4-2.3,4-5.6c0-2.6-1.1-5.5-4-5.5C-264.1-407.4-265.3-404.6-265.3-401.8z"/>
	<path d="M-239-389.8c1.3-0.1,2.5-0.5,3.1-1.2c0.8-0.8,1.1-2.1,1.1-5.7v-13.4h4.2v14.6c0,3.4-0.7,5.5-2.2,7
		c-1.4,1.4-3.7,1.9-5.8,1.9L-239-389.8z M-230.4-414.7c0,1.2-0.9,2.2-2.4,2.2c-1.4,0-2.3-1-2.3-2.2c0-1.3,0.9-2.2,2.3-2.2
		C-231.3-416.9-230.5-416-230.4-414.7z"/>
	<path d="M-208-398.6c0,2,0.1,3.6,0.1,4.9h-3.6l-0.2-2.5h-0.1c-0.7,1.1-2.3,2.9-5.3,2.9s-5.7-1.8-5.7-7.2v-9.6h4.2v9
		c0,2.7,0.9,4.5,3.1,4.5c1.7,0,2.8-1.2,3.2-2.2c0.1-0.4,0.2-0.8,0.2-1.3v-9.9h4.2L-208-398.6L-208-398.6z"/>
	<path d="M-199.9-405.2c0-1.9-0.1-3.5-0.1-4.9h3.6l0.2,2.5h0.1c0.7-1.3,2.5-2.8,5.2-2.8c2.9,0,5.8,1.9,5.8,7v9.8h-4.2v-9.3
		c0-2.4-0.9-4.2-3.1-4.2c-1.7,0-2.8,1.2-3.2,2.4c-0.1,0.3-0.2,0.9-0.2,1.3v9.7h-4.2L-199.9-405.2L-199.9-405.2z"/>
	<path d="M-172.6-414.7c0,1.2-0.9,2.2-2.4,2.2c-1.4,0-2.3-1-2.3-2.2c0-1.3,0.9-2.2,2.3-2.2C-173.5-416.9-172.6-416-172.6-414.7z
		 M-177-393.6v-16.5h4.2v16.5H-177z"/>
	<path d="M-149.2-402c0,6-4.2,8.8-8.5,8.8c-4.6,0-8.2-3.2-8.2-8.5c0-5.4,3.6-8.7,8.5-8.7C-152.5-410.5-149.2-407-149.2-402z
		 M-161.6-401.8c0,3.2,1.6,5.6,4.1,5.6c2.4,0,4-2.3,4-5.6c0-2.6-1.1-5.5-4-5.5C-160.4-407.4-161.6-404.6-161.6-401.8z"/>
	<path d="M-142.2-404.8c0-2.2,0-3.8-0.1-5.3h3.6l0.2,3.1h0.1c0.8-2.3,2.7-3.5,4.5-3.5c0.4,0,0.7,0,1,0.1v3.9
		c-0.4-0.1-0.7-0.1-1.2-0.1c-2,0-3.4,1.3-3.7,3.1c-0.1,0.4-0.1,0.8-0.1,1.3v8.5h-4.2L-142.2-404.8L-142.2-404.8z"/>
	<path d="M-126.8-397.5c0.9,0.6,2.7,1.2,4.2,1.2c1.8,0,2.7-0.8,2.7-1.9s-0.7-1.7-2.7-2.4c-3.2-1.1-4.6-2.9-4.5-4.8
		c0-2.9,2.4-5.1,6.2-5.1c1.8,0,3.4,0.5,4.4,1l-0.8,2.9c-0.7-0.4-2-1-3.5-1s-2.3,0.7-2.3,1.7s0.8,1.5,2.9,2.3c3,1.1,4.4,2.6,4.4,5
		c0,3-2.3,5.2-6.7,5.2c-2,0-3.8-0.5-5-1.1L-126.8-397.5z"/>
</g>
<g>
	<g>
		<path class="st1" d="M-803.9-525.5h-86.6c-12.5,0-22.6,10.1-22.6,22.6v86.6c0,12.5,10.1,22.6,22.6,22.6h86.6
			c12.5,0,22.6-10.1,22.6-22.6v-86.6C-781.2-515.4-791.4-525.5-803.9-525.5z M-857-403h-3.8v-48.8l-10.7-11.1
			c-2.1,1.5-4.7,2.4-7.5,2.4c-7.2,0-12.9-5.8-12.9-12.9s5.8-12.9,12.9-12.9s12.9,5.8,12.9,12.9c0,3-1,5.7-2.7,7.9l11.8,12.2
			C-857-453.4-857-403-857-403z M-845.3-403h-3.8v-79.7c-8.5-1-15.1-8.2-15.1-16.9c0-9.4,7.6-17,17-17s17,7.6,17,17
			c0,8.7-6.6,15.9-15.1,16.9C-845.3-482.7-845.3-403-845.3-403z M-815.3-460.5c-2.8,0-5.4-0.9-7.5-2.4l-10.7,11.1v48.8h-3.8v-50.4
			l11.8-12.2c-1.7-2.2-2.7-4.9-2.7-7.9c0-7.1,5.8-12.9,12.9-12.9c7.2,0,12.9,5.8,12.9,12.9S-808.2-460.5-815.3-460.5z"/>
		<ellipse class="st1" cx="-847.2" cy="-499.6" rx="13.2" ry="13.2"/>
	</g>
</g>
<g>
	<path class="st2" d="M26.7,28.1c-0.9,1-2,2-3.2,2.8c-1.4,0.9-2.8,1.5-4.3,1.9l1.5,48.4c2.7,0.4,5.3,1.6,7.5,3.4l43.2-27.9
		c-0.7-2.3-0.8-4.7-0.4-7L26.7,28.1z"/>
	<path class="st3" d="M77.7,39.7c-2.5,1.7-4.4,3.9-5.6,6.5L28.7,25c2.4-4.7,2.3-10.4-0.8-15.1C23.4,2.9,14,0.9,7,5.4
		s-9,13.9-4.5,20.9c2.9,4.5,7.9,7,13,6.9L17,81c-2.4,0.2-4.8,1-6.9,2.4c-7,4.5-9,13.9-4.5,20.9s13.9,9,20.9,4.5s9-13.9,4.5-20.9
		c-0.1-0.2-0.2-0.4-0.4-0.6l42.1-27.2c0.1,0.2,0.2,0.4,0.3,0.5c4.5,7,13.9,9,20.9,4.5s9-13.9,4.5-20.9C94,37.2,84.7,35.2,77.7,39.7z
		 M6.1,24C2.8,19,4.3,12.2,9.3,9s11.8-1.8,15.1,3.2c2.2,3.4,2.2,7.6,0.5,11c-0.6,1.1-1.3,2.1-2.2,2.9l-3.6,2.2
		c-1.2,0.4-2.4,0.7-3.6,0.7C11.8,29.1,8.2,27.3,6.1,24z M27.5,90.2c3.3,5.1,1.8,11.8-3.2,15.1s-11.8,1.8-15.1-3.2
		C5.9,97,7.4,90.3,12.4,87c1.5-1,3.1-1.5,4.8-1.7c1.2-0.1,2.5-0.1,3.6,0.2c1.3,0.3,2.5,0.8,3.6,1.6c1,0.7,1.9,1.6,2.7,2.6
		C27.2,89.8,27.4,90,27.5,90.2z M28.2,84.6c-2.2-1.9-4.8-3-7.5-3.4l-1.5-48.5c1.5-0.4,3-1,4.3-1.9c1.2-0.8,2.2-1.7,3.2-2.7L71,49.8
		c-0.4,2.3-0.3,4.7,0.4,7L28.2,84.6z M91.8,61.6c-5,3.3-11.8,1.8-15.1-3.2c-0.1-0.2-0.2-0.4-0.3-0.5c-0.6-1.1-1.1-2.3-1.3-3.5
		c-0.2-0.9-0.2-1.7-0.1-2.6c0.1-1.2,0.4-2.5,0.9-3.6c0.8-1.9,2.2-3.6,4.1-4.8c5-3.3,11.8-1.8,15.1,3.2
		C98.3,51.6,96.8,58.3,91.8,61.6z"/>
</g>
</svg>
