<?xml version="1.0" encoding="utf-8"?>
<!-- Generator: Adobe Illustrator 27.3.1, SVG Export Plug-In . SVG Version: 6.00 Build 0)  -->
<svg version="1.1" id="Capa_1" xmlns="http://www.w3.org/2000/svg" xmlns:xlink="http://www.w3.org/1999/xlink" x="0px" y="0px"
	 viewBox="0 0 121 121" style="enable-background:new 0 0 121 121;" xml:space="preserve">
<style type="text/css">
	.st0{fill:none;}
	.st1{fill:#7CB928;}
</style>
<g>
	<path class="st0" d="M39.5,31.4c-0.9,1-2,2-3.2,2.8c-1.4,0.9-2.8,1.5-4.3,1.9l1.6,48.4c2.7,0.4,5.3,1.6,7.5,3.4l43.2-27.9
		c-0.7-2.3-0.8-4.7-0.4-7L39.5,31.4z"/>
	<path class="st1" d="M90.5,43.1c-2.5,1.6-4.4,3.9-5.6,6.5L41.5,28.4c2.4-4.7,2.3-10.4-0.7-15.1c-4.5-7-13.9-9-20.9-4.5
		s-9,13.9-4.5,20.9c2.9,4.6,7.9,7,13,6.9l1.5,47.8c-2.4,0.2-4.8,1-6.9,2.4c-7,4.5-9,13.9-4.5,20.9s13.9,9,20.9,4.5s9-13.9,4.5-20.9
		c-0.1-0.2-0.3-0.4-0.4-0.6l42.1-27.2c0.1,0.2,0.2,0.4,0.3,0.5c4.5,7,13.9,9,20.9,4.5s9-13.9,4.5-20.9S97.5,38.5,90.5,43.1z
		 M18.9,27.4c-3.3-5-1.8-11.8,3.2-15.1s11.8-1.8,15.1,3.2c2.2,3.4,2.3,7.6,0.5,11c-0.6,1.1-1.3,2.1-2.2,2.9l-3.6,2.2
		c-1.2,0.4-2.4,0.6-3.6,0.7C24.6,32.4,21,30.7,18.9,27.4z M40.4,93.6c3.3,5,1.8,11.8-3.2,15.1c-5,3.3-11.8,1.8-15.1-3.2
		c-3.3-5-1.8-11.8,3.2-15.1c1.5-1,3.1-1.5,4.8-1.7c1.2-0.1,2.5-0.1,3.6,0.2c1.3,0.3,2.5,0.8,3.6,1.5c1,0.7,1.9,1.5,2.7,2.6
		C40.1,93.2,40.2,93.4,40.4,93.6z M41,88c-2.2-1.8-4.8-3-7.5-3.4L32,36.1c1.5-0.4,3-1,4.3-1.9c1.2-0.8,2.3-1.7,3.2-2.8l44.3,21.7
		c-0.4,2.3-0.3,4.7,0.4,7L41,88z M104.6,64.9c-5,3.3-11.8,1.8-15.1-3.2c-0.1-0.2-0.2-0.4-0.3-0.5c-0.6-1.1-1.1-2.3-1.3-3.5
		c-0.1-0.9-0.2-1.7-0.1-2.6c0.1-1.2,0.4-2.5,0.9-3.6c0.8-1.9,2.2-3.6,4.1-4.8c5-3.3,11.8-1.8,15.1,3.2
		C111.1,54.9,109.7,61.7,104.6,64.9z"/>
</g>
</svg>
